<svg xmlns="http://www.w3.org/2000/svg" width="2.24in" height="2.21in" viewBox="0 0 161.44 158.84"><defs><style>.cls-1{isolation:isolate;}.cls-2{fill:#d7df23;}.cls-3{fill:#fff;}.cls-4{mix-blend-mode:multiply;}.cls-5{fill:#039b9d;}.cls-6{fill:#dbe799;}.cls-7{opacity:0.75;}.cls-8{fill:#f9ed32;}</style></defs><title>workshop 2019 logo</title><g class="cls-1"><g id="Layer_1" data-name="Layer 1"><path d="M140.72,43.46a2.66,2.66,0,0,0,3-2.42A2.58,2.58,0,0,0,141.51,38a3.16,3.16,0,0,0-3.11,2.58A2.39,2.39,0,0,0,140.72,43.46Z" transform="translate(-0.54 -0.42)"/><path d="M131.16,49.32a2.66,2.66,0,0,0,3-2.42A2.57,2.57,0,0,0,132,43.84a3.13,3.13,0,0,0-3.11,2.58A2.37,2.37,0,0,0,131.16,49.32Z" transform="translate(-0.54 -0.42)"/><path d="M8.47,72.33a7.43,7.43,0,0,0-7.35,6.09,5.64,5.64,0,0,0,5.47,6.86,6.29,6.29,0,0,0,7-5.72A6.09,6.09,0,0,0,8.47,72.33Z" transform="translate(-0.54 -0.42)"/><path d="M145.17,129.15a5.86,5.86,0,0,0-5.79,4.79,4.44,4.44,0,0,0,4.31,5.4,5,5,0,0,0,5.51-4.5A4.79,4.79,0,0,0,145.17,129.15Z" transform="translate(-0.54 -0.42)"/><path d="M25.37,99.51A5.45,5.45,0,0,0,20,104a4.14,4.14,0,0,0,4,5,4.62,4.62,0,0,0,5.14-4.2A4.47,4.47,0,0,0,25.37,99.51Z" transform="translate(-0.54 -0.42)"/><path d="M82.45,20.31a4.15,4.15,0,0,0,4,5,4.63,4.63,0,0,0,5.14-4.2,4.47,4.47,0,0,0-3.76-5.31A5.47,5.47,0,0,0,82.45,20.31Z" transform="translate(-0.54 -0.42)"/><path d="M38.7,41.06a4.61,4.61,0,0,0,5.13-4.19,4.47,4.47,0,0,0-3.76-5.31A5.44,5.44,0,0,0,34.68,36,4.13,4.13,0,0,0,38.7,41.06Z" transform="translate(-0.54 -0.42)"/><path d="M155.6,115.3a3.34,3.34,0,0,0-3.29,2.72,2.52,2.52,0,0,0,2.45,3.06,2.81,2.81,0,0,0,3.12-2.55A2.71,2.71,0,0,0,155.6,115.3Z" transform="translate(-0.54 -0.42)"/><path d="M46.63,144.75a4.79,4.79,0,0,0-4.74,3.91,3.63,3.63,0,0,0,3.53,4.41,4,4,0,0,0,4.49-3.67A3.91,3.91,0,0,0,46.63,144.75Z" transform="translate(-0.54 -0.42)"/><path d="M112,11a4,4,0,0,0,4.49-3.68,3.91,3.91,0,0,0-3.28-4.64,4.78,4.78,0,0,0-4.74,3.91A3.63,3.63,0,0,0,112,11Z" transform="translate(-0.54 -0.42)"/><path d="M40.23,14.6A2.8,2.8,0,0,0,43.34,12a2.71,2.71,0,0,0-2.28-3.22,3.31,3.31,0,0,0-3.28,2.71A2.53,2.53,0,0,0,40.23,14.6Z" transform="translate(-0.54 -0.42)"/><path d="M157,85a7,7,0,0,0-6.93,5.72,5.32,5.32,0,0,0,5.16,6.47,5.92,5.92,0,0,0,6.58-5.38A5.73,5.73,0,0,0,157,85Z" transform="translate(-0.54 -0.42)"/><path d="M120.18,138.32a5.75,5.75,0,0,0-4.81-6.81,7,7,0,0,0-6.93,5.72,5.32,5.32,0,0,0,5.16,6.47A5.91,5.91,0,0,0,120.18,138.32Z" transform="translate(-0.54 -0.42)"/><path d="M100.79,140.71a1.88,1.88,0,0,0-1.85,1.53,1.42,1.42,0,0,0,1.38,1.73,1.58,1.58,0,0,0,1.75-1.44A1.54,1.54,0,0,0,100.79,140.71Z" transform="translate(-0.54 -0.42)"/><path d="M71.38,146.84a1.88,1.88,0,0,0-1.85,1.53,1.42,1.42,0,0,0,1.37,1.73,1.59,1.59,0,0,0,1.76-1.44A1.54,1.54,0,0,0,71.38,146.84Z" transform="translate(-0.54 -0.42)"/><path d="M79.39,135.44A1.88,1.88,0,0,0,77.54,137a1.42,1.42,0,0,0,1.38,1.72,1.57,1.57,0,0,0,1.75-1.43A1.52,1.52,0,0,0,79.39,135.44Z" transform="translate(-0.54 -0.42)"/><path d="M86.26,139.59a1.87,1.87,0,0,0-1.84,1.53,1.41,1.41,0,0,0,1.37,1.73,1.59,1.59,0,0,0,1.76-1.44A1.54,1.54,0,0,0,86.26,139.59Z" transform="translate(-0.54 -0.42)"/><path d="M57.9,147.46A1.86,1.86,0,0,0,56.05,149a1.42,1.42,0,0,0,1.38,1.73,1.58,1.58,0,0,0,1.75-1.44A1.52,1.52,0,0,0,57.9,147.46Z" transform="translate(-0.54 -0.42)"/><path d="M91.65,14a1.57,1.57,0,0,0,1.75-1.44,1.51,1.51,0,0,0-1.28-1.81,1.87,1.87,0,0,0-1.85,1.53A1.42,1.42,0,0,0,91.65,14Z" transform="translate(-0.54 -0.42)"/><path d="M67.85,13.47A1.58,1.58,0,0,0,69.6,12a1.54,1.54,0,0,0-1.28-1.82,1.86,1.86,0,0,0-1.85,1.53A1.41,1.41,0,0,0,67.85,13.47Z" transform="translate(-0.54 -0.42)"/><path d="M82.61,10.72a1.58,1.58,0,0,0,1.76-1.43,1.54,1.54,0,0,0-1.29-1.82A1.86,1.86,0,0,0,81.24,9,1.4,1.4,0,0,0,82.61,10.72Z" transform="translate(-0.54 -0.42)"/><path d="M16.34,49.25a1.51,1.51,0,0,0-1.28-1.81A1.87,1.87,0,0,0,13.21,49a1.41,1.41,0,0,0,1.38,1.72A1.57,1.57,0,0,0,16.34,49.25Z" transform="translate(-0.54 -0.42)"/><path d="M2.26,71.64A1.57,1.57,0,0,0,4,70.21,1.51,1.51,0,0,0,2.73,68.4,1.87,1.87,0,0,0,.88,69.92,1.41,1.41,0,0,0,2.26,71.64Z" transform="translate(-0.54 -0.42)"/><path d="M16,88.42a1.42,1.42,0,0,0,1.38,1.72,1.58,1.58,0,0,0,1.76-1.43,1.53,1.53,0,0,0-1.29-1.82A1.88,1.88,0,0,0,16,88.42Z" transform="translate(-0.54 -0.42)"/><path d="M2.42,87.51A1.85,1.85,0,0,0,.58,89,1.41,1.41,0,0,0,2,90.76a1.59,1.59,0,0,0,1.76-1.44A1.52,1.52,0,0,0,2.42,87.51Z" transform="translate(-0.54 -0.42)"/><path d="M127.45,38a1.58,1.58,0,0,0,1.76-1.44,1.52,1.52,0,0,0-1.29-1.81,1.87,1.87,0,0,0-1.85,1.53A1.42,1.42,0,0,0,127.45,38Z" transform="translate(-0.54 -0.42)"/><path d="M144,114.58a1.41,1.41,0,0,0,1.38,1.72,1.57,1.57,0,0,0,1.75-1.43,1.52,1.52,0,0,0-1.28-1.82A1.88,1.88,0,0,0,144,114.58Z" transform="translate(-0.54 -0.42)"/><path d="M15.42,57a1.42,1.42,0,0,0,1.38,1.72,1.57,1.57,0,0,0,1.75-1.43,1.53,1.53,0,0,0-1.28-1.82A1.87,1.87,0,0,0,15.42,57Z" transform="translate(-0.54 -0.42)"/><path d="M9.56,104.44A1.87,1.87,0,0,0,7.71,106a1.41,1.41,0,0,0,1.38,1.72,1.55,1.55,0,0,0,1.75-1.43A1.51,1.51,0,0,0,9.56,104.44Z" transform="translate(-0.54 -0.42)"/><path d="M27.75,148.52a1.87,1.87,0,0,0-1.85,1.53,1.41,1.41,0,0,0,1.38,1.71A1.56,1.56,0,0,0,29,150.33,1.52,1.52,0,0,0,27.75,148.52Z" transform="translate(-0.54 -0.42)"/><path d="M43.09,130.72a2.79,2.79,0,0,0-2.35-3.33,3.41,3.41,0,0,0-3.39,2.8,2.59,2.59,0,0,0,2.52,3.16A2.88,2.88,0,0,0,43.09,130.72Z" transform="translate(-0.54 -0.42)"/><path d="M132.65,105.71a14.29,14.29,0,0,0,.88-4.78,8.57,8.57,0,0,0-.38-4.38,40.78,40.78,0,0,0,.76-6.76A2.65,2.65,0,0,0,136,90.88a2.81,2.81,0,0,0,3.12-2.56,2.72,2.72,0,0,0-2.28-3.22,3.3,3.3,0,0,0-2.57,1.18c.12-.75.21-1.5.29-2.24a2.89,2.89,0,0,0,3.2-2.63,2.8,2.8,0,0,0-2.35-3.34,2.64,2.64,0,0,0-.62.05,48.3,48.3,0,0,0-2.83-15c2.16-.11,3.33-1.8,2.47-4.46-.36-2.92-3.24-6.62-6.48-8.91a5.6,5.6,0,0,0,.07-.59,4.47,4.47,0,0,0-3.76-5.3,5.07,5.07,0,0,0-3.12,1c-1.27-1.45-2.6-2.84-4-4.17a4.29,4.29,0,0,0,1.43-3,4.47,4.47,0,0,0-3.76-5.31A5.53,5.53,0,0,0,110.07,35c-.67-.46-1.34-.91-2-1.35a8.54,8.54,0,0,0-7.28-9.21,10.08,10.08,0,0,0-7,2.65,51.38,51.38,0,0,0-5.17-1.29,51.77,51.77,0,0,0-24.36,3.75A4.56,4.56,0,0,0,62,28.48a1.34,1.34,0,0,0-.2,0,4.22,4.22,0,0,0,1.18-2.68,1.58,1.58,0,0,0,1.73-1.44,1.53,1.53,0,0,0-1.29-1.81,1.7,1.7,0,0,0-.88.21,4.65,4.65,0,0,0-3.32-2.3,5.44,5.44,0,0,0-5.39,4.47,4.15,4.15,0,0,0,4,5l.33,0a5,5,0,0,0-1.58,2.94c0,.14-.05.28-.07.42-1.12.65-2.22,1.33-3.3,2.06A4.57,4.57,0,0,0,50.55,34a5.43,5.43,0,0,0-5.39,4.46,4,4,0,0,0,.46,3c-1.23,1.16-2.41,2.37-3.53,3.65a2.9,2.9,0,0,0-2-1.27,3.41,3.41,0,0,0-3.39,2.8,2.5,2.5,0,0,0,.21,1.73A15.7,15.7,0,0,0,32.16,59.9h0a3.41,3.41,0,0,0-3.39,2.8,2.56,2.56,0,0,0,2.13,3.1,48.87,48.87,0,0,0-1.42,7.75A14.6,14.6,0,0,0,23,82.14c-1.67,5.22,1.35,9.81,6.59,10.15.28,1.28.63,2.55,1,3.81a15.28,15.28,0,0,0,.16,6c.42,3.95,2.37,8.35,5.29,12.58a3,3,0,0,0-.91,1.69,2.39,2.39,0,0,0,2.32,2.9,2.49,2.49,0,0,0,1.8-.46,51.79,51.79,0,0,0,8.77,8,1.74,1.74,0,0,0-.7,1.13,1.42,1.42,0,0,0,1.38,1.73,1.58,1.58,0,0,0,1.72-1.25,38.45,38.45,0,0,0,7,3.5,25.91,25.91,0,0,0,4,1.53,5.94,5.94,0,0,0,5.88,6.11,4.84,4.84,0,0,0,1.2.06,1.44,1.44,0,0,0,1.22.73A1.58,1.58,0,0,0,71.52,139a1.5,1.5,0,0,0,0-.29,6.4,6.4,0,0,0,3.12-5.06c0-.22.09-.45.12-.67.94.13,1.89.24,2.85.32a44,44,0,0,0,9,.91,4.16,4.16,0,0,0,4.1,4.53,4.62,4.62,0,0,0,5.14-4.2,4.41,4.41,0,0,0,.09-1.3,48.1,48.1,0,0,0,12.77-4.68,4.82,4.82,0,0,0,2.26.66,5,5,0,0,0,5.51-4.5,4.25,4.25,0,0,0,.1-1.37,49.48,49.48,0,0,0,6.24-6,2.67,2.67,0,0,0,2.39,1.61,2.89,2.89,0,0,0,3.21-2.64,2.65,2.65,0,0,0-.75-2.51,16.54,16.54,0,0,0,2.18-2.57,3,3,0,0,0,1.21.32,2.9,2.9,0,0,0,3.22-2.63A2.75,2.75,0,0,0,132.65,105.71Z" transform="translate(-0.54 -0.42)"/><path d="M141.73,114.39a2.8,2.8,0,0,0-2.34-3.33l0-.17a1.53,1.53,0,0,0-1.29-1.82,1.88,1.88,0,0,0-1.85,1.53,1.37,1.37,0,0,0,.63,1.48,3.06,3.06,0,0,0-.93,1.78,2.6,2.6,0,0,0,2.53,3.16A2.9,2.9,0,0,0,141.73,114.39Z" transform="translate(-0.54 -0.42)"/><path d="M112.77,18.48A3.89,3.89,0,0,0,116.24,23a2.6,2.6,0,0,0,2.54,3.05A2.89,2.89,0,0,0,122,23.46a2.72,2.72,0,0,0-1.24-2.91,3.33,3.33,0,0,0,.21-1.13,4.19,4.19,0,0,0-3.46-4.82A4.61,4.61,0,0,0,112.77,18.48Z" transform="translate(-0.54 -0.42)"/><path d="M134.19,33.17a2.88,2.88,0,0,0,3.22-2.62,2.8,2.8,0,0,0-2.35-3.34,3.44,3.44,0,0,0-3.4,2.81A2.6,2.6,0,0,0,134.19,33.17Z" transform="translate(-0.54 -0.42)"/><path d="M75.81,3.67a1.57,1.57,0,0,0,1.75-1.44A1.53,1.53,0,0,0,76.28.42,1.87,1.87,0,0,0,74.43,2,1.42,1.42,0,0,0,75.81,3.67Z" transform="translate(-0.54 -0.42)"/><path d="M30.17,38.9a1.58,1.58,0,0,0,1.75-1.44,1.53,1.53,0,0,0-1.28-1.81,1.87,1.87,0,0,0-1.85,1.52A1.42,1.42,0,0,0,30.17,38.9Z" transform="translate(-0.54 -0.42)"/><path d="M21.28,36.14A1.59,1.59,0,0,0,23,34.7a1.53,1.53,0,0,0-1.29-1.81,1.87,1.87,0,0,0-1.85,1.53A1.42,1.42,0,0,0,21.28,36.14Z" transform="translate(-0.54 -0.42)"/><path d="M20.58,120.48a1.52,1.52,0,0,0-1.28-1.82,1.86,1.86,0,0,0-1.84,1.53,1.35,1.35,0,0,0,0,.28,3.41,3.41,0,0,0-2.27,2.63,2.6,2.6,0,0,0,2.53,3.16,2.89,2.89,0,0,0,3.22-2.63,2.66,2.66,0,0,0-.61-2.36A1.41,1.41,0,0,0,20.58,120.48Z" transform="translate(-0.54 -0.42)"/><path d="M21.59,65.85A2.51,2.51,0,0,0,24,68.91a2.81,2.81,0,0,0,3.12-2.55,2.72,2.72,0,0,0-2.28-3.22A3.31,3.31,0,0,0,21.59,65.85Z" transform="translate(-0.54 -0.42)"/><path d="M121.35,153.45a3.3,3.3,0,0,0-3.28,2.71,2.53,2.53,0,0,0,2.44,3.07,2.81,2.81,0,0,0,3.12-2.55A2.71,2.71,0,0,0,121.35,153.45Z" transform="translate(-0.54 -0.42)"/><path d="M20.67,44.58a2.52,2.52,0,0,0,2.44,3.07,2.81,2.81,0,0,0,3.12-2.56A2.71,2.71,0,0,0,24,41.87,3.3,3.3,0,0,0,20.67,44.58Z" transform="translate(-0.54 -0.42)"/><path d="M32.77,113.64a3.33,3.33,0,0,0-3.29,2.72,2.51,2.51,0,0,0,2.45,3.06,2.8,2.8,0,0,0,3.12-2.55A2.73,2.73,0,0,0,32.77,113.64Z" transform="translate(-0.54 -0.42)"/><path d="M143.8,63.25a7.24,7.24,0,0,0-4,5.3,5.63,5.63,0,0,0,5.48,6.86,6.28,6.28,0,0,0,7-5.71,5.81,5.81,0,0,0-2-5.78,4.14,4.14,0,0,0,1.57-3,4.26,4.26,0,0,0-3.57-5.05,5.19,5.19,0,0,0-5.13,4.24A3.79,3.79,0,0,0,143.8,63.25Z" transform="translate(-0.54 -0.42)"/><path d="M126.77,125.25a3.31,3.31,0,0,0-3.28,2.72,2.52,2.52,0,0,0,2.44,3.06,2.79,2.79,0,0,0,3.12-2.55A2.71,2.71,0,0,0,126.77,125.25Z" transform="translate(-0.54 -0.42)"/><path class="cls-2" d="M47.73,56.85l1,5.76h0L50.22,57l1.72.07,1,5.78h0l1.42-5.68,2.27.09L54,65.9l-2-.08L51,60.08h0L49.4,65.71l-2-.08-1.92-8.87Z" transform="translate(-0.54 -0.42)"/><path class="cls-2" d="M62.07,56.75a4.56,4.56,0,1,1-4.63,4.67,5,5,0,0,1,.35-1.88A4.56,4.56,0,0,1,62.07,56.75Zm0,7.15a2.6,2.6,0,1,0-2.42-2.61A2.46,2.46,0,0,0,62.11,63.9Z" transform="translate(-0.54 -0.42)"/><path class="cls-2" d="M68.34,56.92h2.78a3.91,3.91,0,0,1,2.71.63,3,3,0,0,1,1.08,2.39,2.67,2.67,0,0,1-2.19,2.77l2.39,3H72.54l-2-2.84h0V65.7H68.34Zm2.15,4.41h.79c1.32,0,1.48-.83,1.48-1.25,0-.8-.58-1.19-1.45-1.19h-.82Z" transform="translate(-0.54 -0.42)"/><path class="cls-2" d="M77.05,56.92h2.24v3.95h0l2.48-3.95h2.35L81.24,61.3l3.1,4.4H81.71l-2.39-3.8h0v3.8H77.05Z" transform="translate(-0.54 -0.42)"/><path class="cls-2" d="M88.72,59.48c0-.3-.12-.85-.81-.85a.73.73,0,0,0-.77.69c0,.52.24.62,1.82,1.34S91,62.15,91,63.17c0,1.29-.73,2.7-3.06,2.7-2.54,0-3.17-1.66-3.17-2.79v-.29H87c0,1,.63,1.2.92,1.2a.85.85,0,0,0,.85-.84c0-.58-.37-.72-1.72-1.29-.62-.25-2.15-.87-2.15-2.52s1.6-2.59,3.08-2.59a3.12,3.12,0,0,1,2.37,1,2.63,2.63,0,0,1,.58,1.73Z" transform="translate(-0.54 -0.42)"/><path class="cls-2" d="M92.38,56.92h2.25v3.3H97.5v-3.3h2.24V65.7H97.5V62.19H94.63V65.7H92.38Z" transform="translate(-0.54 -0.42)"/><path class="cls-2" d="M105.11,56.75a4.56,4.56,0,1,1-4.63,4.67,5,5,0,0,1,.34-1.88A4.58,4.58,0,0,1,105.11,56.75Zm0,7.15a2.6,2.6,0,1,0-2.42-2.61A2.47,2.47,0,0,0,105.14,63.9Z" transform="translate(-0.54 -0.42)"/><path class="cls-2" d="M111.38,56.92h2.87c1.62,0,2.23.25,2.71.64a3,3,0,0,1,1,2.33,3.17,3.17,0,0,1-.93,2.3,3.42,3.42,0,0,1-2.56.76h-1V65.7h-2.14ZM113.52,61h.92c.43,0,1.4,0,1.4-1.06s-1-1-1.48-1h-.84Z" transform="translate(-0.54 -0.42)"/><path class="cls-3" d="M46.25,88V85.65l7.81-7.94a5,5,0,0,0,1.8-3.63,3.56,3.56,0,0,0-3.38-3.78c-1.53,0-3.54,1.1-3.54,4.13v.51h-2.8c0-5.85,4.16-7.19,6.23-7.19a6.28,6.28,0,0,1,6.28,6.41c0,2.63-1.39,4.22-2.76,5.61l-5.53,5.66h8.32V88Z" transform="translate(-0.54 -0.42)"/><path class="cls-3" d="M79,81.6a6.19,6.19,0,0,1-1.45,4.48,6.63,6.63,0,0,1-5,2.28,6.41,6.41,0,0,1-5-2.42,6.71,6.71,0,0,1-1.37-4.56V74.46A6.43,6.43,0,1,1,79,74.27Zm-2.79-7.33c0-3.49-2.55-4-3.6-4-1.4,0-3.68.81-3.68,4V81.6c0,4.1,3.22,4.21,3.71,4.21a3.55,3.55,0,0,0,2.68-1.26,3.86,3.86,0,0,0,.89-3Z" transform="translate(-0.54 -0.42)"/><path class="cls-3" d="M94.78,88H92V70.67H89.06V68.12h5.72Z" transform="translate(-0.54 -0.42)"/><path class="cls-3" d="M108.9,88l4.21-6.52a8.09,8.09,0,0,1-1.15.11,6.49,6.49,0,0,1-6.42-6.71,6.86,6.86,0,1,1,13.72-.38,8.77,8.77,0,0,1-1.53,4.78L112.2,88Zm3.49-17.68a4.18,4.18,0,0,0-4,4.29,4.08,4.08,0,1,0,4-4.29Z" transform="translate(-0.54 -0.42)"/><path class="cls-2" d="M46.4,96.68h-.78V91.33h1.55c1.28,0,1.89.66,1.89,1.62s-.61,1.62-1.89,1.62H46.4Zm0-2.83h.77c.89,0,1.11-.5,1.11-.9s-.22-.9-1.11-.9H46.4Z" transform="translate(-0.54 -0.42)"/><path class="cls-2" d="M53.22,96.68l-.59-1.58H50.7l-.59,1.58h-.83l2-5.35H52l2,5.35Zm-.86-2.29-.68-2h0l-.68,2Z" transform="translate(-0.54 -0.42)"/><path class="cls-2" d="M57.16,96.68,55.4,94.2h0v2.48H54.6V91.33h1.66a1.91,1.91,0,0,1,1.43.45A1.76,1.76,0,0,1,58.18,93a1.54,1.54,0,0,1-1.54,1.64l1.5,2Zm-1.77-2.59h.53c.32,0,1.48,0,1.48-1,0-.44-.31-1-1.19-1h-.82Z" transform="translate(-0.54 -0.42)"/><path class="cls-2" d="M59.5,96.68V92.05h-1v-.72h2.83v.72h-1v4.63Z" transform="translate(-0.54 -0.42)"/><path class="cls-2" d="M65.35,96.68,62.7,92.54h0v4.14h-.78V91.33h.85l2.6,4.07h0V91.33h.78v5.35Z" transform="translate(-0.54 -0.42)"/><path class="cls-2" d="M67.17,96.68V91.33h2.89v.72H68v1.57h2.11v.72H68V96h2.11v.71Z" transform="translate(-0.54 -0.42)"/><path class="cls-2" d="M73.49,96.68,71.72,94.2h0v2.48h-.78V91.33h1.65a1.91,1.91,0,0,1,1.43.45A1.76,1.76,0,0,1,74.5,93,1.54,1.54,0,0,1,73,94.68l1.49,2Zm-1.78-2.59h.53c.32,0,1.48,0,1.48-1,0-.44-.31-1-1.19-1h-.82Z" transform="translate(-0.54 -0.42)"/><path class="cls-2" d="M75.66,95.1a.9.9,0,0,0,.87,1,.84.84,0,0,0,.86-.91c0-.6-.49-.73-.86-.87a2.86,2.86,0,0,1-1.14-.6,1.49,1.49,0,0,1,1.14-2.46,1.43,1.43,0,0,1,1.53,1.49h-.78a.72.72,0,0,0-.75-.78.74.74,0,0,0-.72.73c0,.52.49.66.72.74.67.26,1.64.47,1.64,1.75a1.56,1.56,0,0,1-1.64,1.62,1.6,1.6,0,0,1-1.65-1.68Z" transform="translate(-0.54 -0.42)"/><path class="cls-2" d="M80.89,96.68V91.33h.78v5.35Z" transform="translate(-0.54 -0.42)"/><path class="cls-2" d="M86.19,96.68l-2.65-4.14h0v4.14h-.78V91.33h.85l2.6,4.07h0V91.33H87v5.35Z" transform="translate(-0.54 -0.42)"/><path class="cls-2" d="M90.45,95.1c0,.18.08,1,.86,1a.84.84,0,0,0,.87-.91c0-.6-.5-.73-.87-.87a2.8,2.8,0,0,1-1.13-.6,1.41,1.41,0,0,1-.36-1,1.46,1.46,0,0,1,1.49-1.45,1.44,1.44,0,0,1,1.54,1.49h-.78a.72.72,0,0,0-.76-.78.73.73,0,0,0-.71.73c0,.52.48.66.71.74.68.26,1.65.47,1.65,1.75a1.56,1.56,0,0,1-1.65,1.62,1.6,1.6,0,0,1-1.64-1.68Z" transform="translate(-0.54 -0.42)"/><path class="cls-2" d="M94.22,96.68V92.05h-1v-.72H96v.72H95v4.63Z" transform="translate(-0.54 -0.42)"/><path class="cls-2" d="M100.19,95a1.82,1.82,0,0,1-.54,1.38,2,2,0,0,1-2.5,0A1.82,1.82,0,0,1,96.61,95V91.33h.78v3.6a1,1,0,1,0,2,0v-3.6h.78Z" transform="translate(-0.54 -0.42)"/><path class="cls-2" d="M101.2,91.33h1.73a2.55,2.55,0,0,1,2.19,1,3.07,3.07,0,0,1,.54,1.71,2.49,2.49,0,0,1-2.76,2.66h-1.7ZM102,96h.93a1.81,1.81,0,0,0,2-2,1.89,1.89,0,0,0-2-2H102Z" transform="translate(-0.54 -0.42)"/><path class="cls-2" d="M106.49,96.68V91.33h2.88v.72h-2.1v1.57h2.1v.72h-2.1V96h2.1v.71Z" transform="translate(-0.54 -0.42)"/><path class="cls-2" d="M113.76,96.68l-2.65-4.14h0v4.14h-.78V91.33h.85l2.6,4.07h0V91.33h.78v5.35Z" transform="translate(-0.54 -0.42)"/><path class="cls-2" d="M116.19,96.68V92.05h-1v-.72H118v.72h-1v4.63Z" transform="translate(-0.54 -0.42)"/><path class="cls-2" d="M49.18,105.37l-.59-1.58H46.66l-.59,1.58h-.82l2-5.36H48l2,5.36Zm-.86-2.3-.68-2h0l-.69,2Z" transform="translate(-0.54 -0.42)"/><path class="cls-2" d="M57.07,101.38a2,2,0,0,0-1.5-.75,2,2,0,0,0-2,2.05,2,2,0,0,0,2,2.07A1.91,1.91,0,0,0,57,104h1a2.75,2.75,0,0,1-2.43,1.43,2.78,2.78,0,0,1-2.74-2.8,2.74,2.74,0,0,1,2.75-2.76,2.85,2.85,0,0,1,1.64.52,2.77,2.77,0,0,1,.82.95Z" transform="translate(-0.54 -0.42)"/><path class="cls-2" d="M64.13,105.37V103H61.92v2.33h-.78V100h.78v2.31h2.21V100h.78v5.36Z" transform="translate(-0.54 -0.42)"/><path class="cls-2" d="M68.41,105.37V100h.78v5.36Z" transform="translate(-0.54 -0.42)"/><path class="cls-2" d="M72.61,105.37V100H75.5v.72H73.39v1.58H75.5V103H73.39v1.63H75.5v.72Z" transform="translate(-0.54 -0.42)"/><path class="cls-2" d="M80.57,105.37,78.41,100h.84l1.55,4,1.56-4h.82L81,105.37Z" transform="translate(-0.54 -0.42)"/><path class="cls-2" d="M86.16,105.37V100h2.89v.72H86.94v1.58h2.11V103H86.94v1.63h2.11v.72Z" transform="translate(-0.54 -0.42)"/><path class="cls-2" d="M97.31,105.37v-4.52h0l-1.8,4.52H95l-1.81-4.52h0v4.52h-.78V100h1.23l1.6,4.1,1.61-4.1h1.23v5.36Z" transform="translate(-0.54 -0.42)"/><path class="cls-2" d="M101.52,105.37V100h2.89v.72H102.3v1.58h2.11V103H102.3v1.63h2.11v.72Z" transform="translate(-0.54 -0.42)"/><path class="cls-2" d="M111.22,105.37l-2.65-4.14h0v4.14h-.78V100h.85l2.6,4.08h0V100H112v5.36Z" transform="translate(-0.54 -0.42)"/><path class="cls-2" d="M116.07,105.37v-4.64h-1V100h2.84v.72h-1v4.64Z" transform="translate(-0.54 -0.42)"/><g class="cls-4"><path class="cls-5" d="M59.83,65.19c.39.61,1,1.12,1.23,1.79a6.07,6.07,0,0,0-.2,1.07,4.72,4.72,0,0,0,1.72,4c.19,2.22,3.93,2.72,5.68,3.53-2.3,1.24-3.84,2.26-4.4,5.08,0,.12,0,.24,0,.36a10.16,10.16,0,0,0,0,1.55,9.46,9.46,0,0,1,0,1.49,2.21,2.21,0,0,1-.11.59c-.66,2-2.23,1.62-3.8,2.49-.06.41-.15.84-.19,1.25a2.16,2.16,0,0,0,.12,1c.19,0,.25-.27.46-.18-.51,1-1.6.2-2.11,0A4.66,4.66,0,0,0,57.58,91q0,.27,0,.66c.72.28,1.28.22,1.28,1,.4-.11.7-.49,1.16-.44a1.33,1.33,0,0,1,.56,1.15,2.1,2.1,0,0,1-.33.87c.73-.1,1.32.75,1.4-.06V94c.83,1,1.71.67,2,1.87.26-.11.43-.48.59-.88a1.86,1.86,0,0,1,.54,1.41,3.52,3.52,0,0,1-.29,1c.54.16.79,0,.83-.46v-.12c1.75-.12,3.51,1.28,3.36,3a1.07,1.07,0,0,1,0,.25c1.86,1,1.38,3.21,2.74,4.11a2.18,2.18,0,0,0,.42.23c.3-.1.69-.15,1.14-.27a7.75,7.75,0,0,0,1.07-.4,7,7,0,0,0,1.2-3.46,5,5,0,0,0-.06-1.48c.92-1,1-2.48,1.49-3.73.4-.44,1-.3,1.46-.68a2.36,2.36,0,0,0,.07-.44,3.56,3.56,0,0,0-.3-1.64,3.79,3.79,0,0,1-4.4,2c-.58-.11-.77-.68-1.15-1.18s-.93-.84-1.07-1.28a2.49,2.49,0,0,1-.08-1,4.09,4.09,0,0,1,1.3-2.61,3.6,3.6,0,0,1,4-.21,3.16,3.16,0,0,0,1-1.18c-.39-.2-.42-.54-.57-.84a10.76,10.76,0,0,0,2.1-2.11c-.87-1.09-.43-3.46-1.88-4.3l-.38-.21a1.3,1.3,0,0,1-.65,0A1.46,1.46,0,0,1,75,78.18l-.81-.6a.2.2,0,0,1-.07-.06c-.78-.61-1.51-1.22-2.09-1.76-.72,0-1.49-.22-2.2-.23.45-.9,1.3-.74,2-1a2.33,2.33,0,0,1,.11-.28c-1.58.05-3.69.34-5-.2a11.43,11.43,0,0,1,5,.14c.75-1.75,2.13-1.82,3.62-1.61.59-1.84.34-3.37,1.27-5.35-.93-.06-1.13-.63-1.07-1.37,0-.14,0-.29.07-.44l0,0C74.65,67.08,73,73,70.09,69a2.18,2.18,0,0,1-.55-1.47c.09-1,1.49-1.59,2.8-2a6.14,6.14,0,0,0,3.56-2.17l.24-.27a4.39,4.39,0,0,1-2.43-1.49,3.49,3.49,0,0,1-2-.8,3.85,3.85,0,0,1,1.51.11,1.45,1.45,0,0,1-.14-.69,1,1,0,0,1,.14-.42,7,7,0,0,1-2.62.33l0,.25c0,.13,0,.27,0,.39A2.36,2.36,0,0,1,66.46,62c-.28.29-1.15.53-1.08-.25a1.05,1.05,0,0,1,.73-.29,2.15,2.15,0,0,1-.37-1.08,2.69,2.69,0,0,1-.57,0,2.73,2.73,0,0,1-.72-.52l-.31.08a.91.91,0,0,0-.22-.11,21.49,21.49,0,0,1-1.82,4l-.23.14a.29.29,0,0,0,0,.09c-.24,0-.38.2-.53.08l-.11,0h0c0,.17.49,0,.46.35-.17,0-.29.1-.3.25a.38.38,0,0,0,0,.22,2.81,2.81,0,0,0-.56-.25C60.83,65.12,60.3,65.06,59.83,65.19ZM77,86.32c-.67,1.23-2.61.11-2.14-1C75.78,85.11,76.84,85.13,77,86.32Zm-3.87-5.19c.16.77-1.1.93-1.44.14A.75.75,0,0,1,73.13,81.13Zm-6.5-7.24c-.93.28-2.52-.22-2.58-1.14C65.1,72.37,65.79,73.55,66.63,73.89Zm-.31-5.42c-.1.1-.13.26-.29.31A.85.85,0,0,1,64.69,68,.86.86,0,0,1,66.32,68.47Zm-.75-1.94a1,1,0,0,1-1.79.12,1,1,0,0,1,0-.38C63.83,65.28,65.54,64.82,65.57,66.53Z" transform="translate(-0.54 -0.42)"/><path class="cls-6" d="M58.27,104.06a1.3,1.3,0,0,1-1.15-.7c-.85-1.45.42-2.4,1.57-2.4a1.39,1.39,0,0,1,1.39.87A1.89,1.89,0,0,1,58.27,104.06Z" transform="translate(-0.54 -0.42)"/><path class="cls-6" d="M64.83,80.64a.27.27,0,0,1,.18.08l.16.09h.06a.59.59,0,0,1-.46.75c-.17-.1-.24-.38-.3-.68.15,0,.21-.09.21-.19Z" transform="translate(-0.54 -0.42)"/><path class="cls-5" d="M53.15,54.06a1.46,1.46,0,0,1-1.29-.79c-1-1.64.47-2.71,1.76-2.71a1.55,1.55,0,0,1,1.57,1A2.13,2.13,0,0,1,53.15,54.06Z" transform="translate(-0.54 -0.42)"/><path class="cls-5" d="M60.48,28.7c-.19-.12-.27-.44-.34-.79.16,0,.23-.09.24-.2a.32.32,0,0,1,.17-.05.27.27,0,0,1,.19.1.31.31,0,0,0,.18.09H61A.67.67,0,0,1,60.48,28.7Z" transform="translate(-0.54 -0.42)"/><path class="cls-5" d="M64.39,66.45c-.86-.2-1.77,0-2.28-.43-1.51-1.36-.1-4,2.11-4a3.13,3.13,0,0,1,.66.08A2.55,2.55,0,0,1,64.39,66.45Z" transform="translate(-0.54 -0.42)"/><path class="cls-5" d="M81.6,96.79a2.93,2.93,0,0,0-1-.2,2.51,2.51,0,0,0-.63.09l-.1-.41h.21a7.31,7.31,0,0,0,.8,0c.28,0,.56,0,.83,0a1.54,1.54,0,0,1,1.5.67,2.1,2.1,0,0,1-.7.12A3.21,3.21,0,0,1,81.6,96.79Z" transform="translate(-0.54 -0.42)"/><path class="cls-5" d="M93.23,102.64a2.47,2.47,0,0,1-2.34-1.49c-1-2.14.86-3.41,2.63-3.41a2.47,2.47,0,0,1,2.67,2C96.44,101.41,94.8,102.64,93.23,102.64Z" transform="translate(-0.54 -0.42)"/></g><g class="cls-7"><path class="cls-8" d="M47.73,56.85l1,5.76h0L50.22,57l1.72.07,1,5.78h0l1.42-5.68,2.27.09L54,65.9l-2-.08L51,60.08h0L49.4,65.71l-2-.08-1.92-8.87Z" transform="translate(-0.54 -0.42)"/><path class="cls-8" d="M62.07,56.75a4.56,4.56,0,1,1-4.63,4.67,5,5,0,0,1,.35-1.88A4.56,4.56,0,0,1,62.07,56.75Zm0,7.15a2.6,2.6,0,1,0-2.42-2.61A2.46,2.46,0,0,0,62.11,63.9Z" transform="translate(-0.54 -0.42)"/><path class="cls-8" d="M68.34,56.92h2.78a3.91,3.91,0,0,1,2.71.63,3,3,0,0,1,1.08,2.39,2.67,2.67,0,0,1-2.19,2.77l2.39,3H72.54l-2-2.84h0V65.7H68.34Zm2.15,4.41h.79c1.32,0,1.48-.83,1.48-1.25,0-.8-.58-1.19-1.45-1.19h-.82Z" transform="translate(-0.54 -0.42)"/><path class="cls-8" d="M77.05,56.92h2.24v3.95h0l2.48-3.95h2.35L81.24,61.3l3.1,4.4H81.71l-2.39-3.8h0v3.8H77.05Z" transform="translate(-0.54 -0.42)"/><path class="cls-8" d="M88.72,59.48c0-.3-.12-.85-.81-.85a.73.73,0,0,0-.77.69c0,.52.24.62,1.82,1.34S91,62.15,91,63.17c0,1.29-.73,2.7-3.06,2.7-2.54,0-3.17-1.66-3.17-2.79v-.29H87c0,1,.63,1.2.92,1.2a.85.85,0,0,0,.85-.84c0-.58-.37-.72-1.72-1.29-.62-.25-2.15-.87-2.15-2.52s1.6-2.59,3.08-2.59a3.12,3.12,0,0,1,2.37,1,2.63,2.63,0,0,1,.58,1.73Z" transform="translate(-0.54 -0.42)"/><path class="cls-8" d="M92.38,56.92h2.25v3.3H97.5v-3.3h2.24V65.7H97.5V62.19H94.63V65.7H92.38Z" transform="translate(-0.54 -0.42)"/><path class="cls-8" d="M105.11,56.75a4.56,4.56,0,1,1-4.63,4.67,5,5,0,0,1,.34-1.88A4.58,4.58,0,0,1,105.11,56.75Zm0,7.15a2.6,2.6,0,1,0-2.42-2.61A2.47,2.47,0,0,0,105.14,63.9Z" transform="translate(-0.54 -0.42)"/><path class="cls-8" d="M111.38,56.92h2.87c1.62,0,2.23.25,2.71.64a3,3,0,0,1,1,2.33,3.17,3.17,0,0,1-.93,2.3,3.42,3.42,0,0,1-2.56.76h-1V65.7h-2.14ZM113.52,61h.92c.43,0,1.4,0,1.4-1.06s-1-1-1.48-1h-.84Z" transform="translate(-0.54 -0.42)"/></g><g class="cls-7"><path class="cls-3" d="M46.25,88V85.65l7.81-7.94a5,5,0,0,0,1.8-3.63,3.56,3.56,0,0,0-3.38-3.78c-1.53,0-3.54,1.1-3.54,4.13v.51h-2.8c0-5.85,4.16-7.19,6.23-7.19a6.28,6.28,0,0,1,6.28,6.41c0,2.63-1.39,4.22-2.76,5.61l-5.53,5.66h8.32V88Z" transform="translate(-0.54 -0.42)"/><path class="cls-3" d="M79,81.6a6.19,6.19,0,0,1-1.45,4.48,6.63,6.63,0,0,1-5,2.28,6.41,6.41,0,0,1-5-2.42,6.71,6.71,0,0,1-1.37-4.56V74.46A6.43,6.43,0,1,1,79,74.27Zm-2.79-7.33c0-3.49-2.55-4-3.6-4-1.4,0-3.68.81-3.68,4V81.6c0,4.1,3.22,4.21,3.71,4.21a3.55,3.55,0,0,0,2.68-1.26,3.86,3.86,0,0,0,.89-3Z" transform="translate(-0.54 -0.42)"/><path class="cls-3" d="M94.78,88H92V70.67H89.06V68.12h5.72Z" transform="translate(-0.54 -0.42)"/><path class="cls-3" d="M108.9,88l4.21-6.52a8.09,8.09,0,0,1-1.15.11,6.49,6.49,0,0,1-6.42-6.71,6.86,6.86,0,1,1,13.72-.38,8.77,8.77,0,0,1-1.53,4.78L112.2,88Zm3.49-17.68a4.18,4.18,0,0,0-4,4.29,4.08,4.08,0,1,0,4-4.29Z" transform="translate(-0.54 -0.42)"/></g><g class="cls-7"><path class="cls-8" d="M46.4,96.68h-.78V91.33h1.55c1.28,0,1.89.66,1.89,1.62s-.61,1.62-1.89,1.62H46.4Zm0-2.83h.77c.89,0,1.11-.5,1.11-.9s-.22-.9-1.11-.9H46.4Z" transform="translate(-0.54 -0.42)"/><path class="cls-8" d="M53.22,96.68l-.59-1.58H50.7l-.59,1.58h-.83l2-5.35H52l2,5.35Zm-.86-2.29-.68-2h0l-.68,2Z" transform="translate(-0.54 -0.42)"/><path class="cls-8" d="M57.16,96.68,55.4,94.2h0v2.48H54.6V91.33h1.66a1.91,1.91,0,0,1,1.43.45A1.76,1.76,0,0,1,58.18,93a1.54,1.54,0,0,1-1.54,1.64l1.5,2Zm-1.77-2.59h.53c.32,0,1.48,0,1.48-1,0-.44-.31-1-1.19-1h-.82Z" transform="translate(-0.54 -0.42)"/><path class="cls-8" d="M59.5,96.68V92.05h-1v-.72h2.83v.72h-1v4.63Z" transform="translate(-0.54 -0.42)"/><path class="cls-8" d="M65.35,96.68,62.7,92.54h0v4.14h-.78V91.33h.85l2.6,4.07h0V91.33h.78v5.35Z" transform="translate(-0.54 -0.42)"/><path class="cls-8" d="M67.17,96.68V91.33h2.89v.72H68v1.57h2.11v.72H68V96h2.11v.71Z" transform="translate(-0.54 -0.42)"/><path class="cls-8" d="M73.49,96.68,71.72,94.2h0v2.48h-.78V91.33h1.65a1.91,1.91,0,0,1,1.43.45A1.76,1.76,0,0,1,74.5,93,1.54,1.54,0,0,1,73,94.68l1.49,2Zm-1.78-2.59h.53c.32,0,1.48,0,1.48-1,0-.44-.31-1-1.19-1h-.82Z" transform="translate(-0.54 -0.42)"/><path class="cls-8" d="M75.66,95.1a.9.9,0,0,0,.87,1,.84.84,0,0,0,.86-.91c0-.6-.49-.73-.86-.87a2.86,2.86,0,0,1-1.14-.6,1.49,1.49,0,0,1,1.14-2.46,1.43,1.43,0,0,1,1.53,1.49h-.78a.72.72,0,0,0-.75-.78.74.74,0,0,0-.72.73c0,.52.49.66.72.74.67.26,1.64.47,1.64,1.75a1.56,1.56,0,0,1-1.64,1.62,1.6,1.6,0,0,1-1.65-1.68Z" transform="translate(-0.54 -0.42)"/><path class="cls-8" d="M80.89,96.68V91.33h.78v5.35Z" transform="translate(-0.54 -0.42)"/><path class="cls-8" d="M86.19,96.68l-2.65-4.14h0v4.14h-.78V91.33h.85l2.6,4.07h0V91.33H87v5.35Z" transform="translate(-0.54 -0.42)"/><path class="cls-8" d="M90.45,95.1c0,.18.08,1,.86,1a.84.84,0,0,0,.87-.91c0-.6-.5-.73-.87-.87a2.8,2.8,0,0,1-1.13-.6,1.41,1.41,0,0,1-.36-1,1.46,1.46,0,0,1,1.49-1.45,1.44,1.44,0,0,1,1.54,1.49h-.78a.72.72,0,0,0-.76-.78.73.73,0,0,0-.71.73c0,.52.48.66.71.74.68.26,1.65.47,1.65,1.75a1.56,1.56,0,0,1-1.65,1.62,1.6,1.6,0,0,1-1.64-1.68Z" transform="translate(-0.54 -0.42)"/><path class="cls-8" d="M94.22,96.68V92.05h-1v-.72H96v.72H95v4.63Z" transform="translate(-0.54 -0.42)"/><path class="cls-8" d="M100.19,95a1.82,1.82,0,0,1-.54,1.38,2,2,0,0,1-2.5,0A1.82,1.82,0,0,1,96.61,95V91.33h.78v3.6a1,1,0,1,0,2,0v-3.6h.78Z" transform="translate(-0.54 -0.42)"/><path class="cls-8" d="M101.2,91.33h1.73a2.55,2.55,0,0,1,2.19,1,3.07,3.07,0,0,1,.54,1.71,2.49,2.49,0,0,1-2.76,2.66h-1.7ZM102,96h.93a1.81,1.81,0,0,0,2-2,1.89,1.89,0,0,0-2-2H102Z" transform="translate(-0.54 -0.42)"/><path class="cls-8" d="M106.49,96.68V91.33h2.88v.72h-2.1v1.57h2.1v.72h-2.1V96h2.1v.71Z" transform="translate(-0.54 -0.42)"/><path class="cls-8" d="M113.76,96.68l-2.65-4.14h0v4.14h-.78V91.33h.85l2.6,4.07h0V91.33h.78v5.35Z" transform="translate(-0.54 -0.42)"/><path class="cls-8" d="M116.19,96.68V92.05h-1v-.72H118v.72h-1v4.63Z" transform="translate(-0.54 -0.42)"/></g><g class="cls-7"><path class="cls-2" d="M49.18,105.37l-.59-1.58H46.66l-.59,1.58h-.82l2-5.36H48l2,5.36Zm-.86-2.3-.68-2h0l-.69,2Z" transform="translate(-0.54 -0.42)"/><path class="cls-2" d="M57.07,101.38a2,2,0,0,0-1.5-.75,2,2,0,0,0-2,2.05,2,2,0,0,0,2,2.07A1.91,1.91,0,0,0,57,104h1a2.75,2.75,0,0,1-2.43,1.43,2.78,2.78,0,0,1-2.74-2.8,2.74,2.74,0,0,1,2.75-2.76,2.85,2.85,0,0,1,1.64.52,2.77,2.77,0,0,1,.82.95Z" transform="translate(-0.54 -0.42)"/><path class="cls-2" d="M64.13,105.37V103H61.92v2.33h-.78V100h.78v2.31h2.21V100h.78v5.36Z" transform="translate(-0.54 -0.42)"/><path class="cls-2" d="M68.41,105.37V100h.78v5.36Z" transform="translate(-0.54 -0.42)"/><path class="cls-2" d="M72.61,105.37V100H75.5v.72H73.39v1.58H75.5V103H73.39v1.63H75.5v.72Z" transform="translate(-0.54 -0.42)"/><path class="cls-2" d="M80.57,105.37,78.41,100h.84l1.55,4,1.56-4h.82L81,105.37Z" transform="translate(-0.54 -0.42)"/><path class="cls-2" d="M86.16,105.37V100h2.89v.72H86.94v1.58h2.11V103H86.94v1.63h2.11v.72Z" transform="translate(-0.54 -0.42)"/><path class="cls-2" d="M97.31,105.37v-4.52h0l-1.8,4.52H95l-1.81-4.52h0v4.52h-.78V100h1.23l1.6,4.1,1.61-4.1h1.23v5.36Z" transform="translate(-0.54 -0.42)"/><path class="cls-2" d="M101.52,105.37V100h2.89v.72H102.3v1.58h2.11V103H102.3v1.63h2.11v.72Z" transform="translate(-0.54 -0.42)"/><path class="cls-2" d="M111.22,105.37l-2.65-4.14h0v4.14h-.78V100h.85l2.6,4.08h0V100H112v5.36Z" transform="translate(-0.54 -0.42)"/><path class="cls-2" d="M116.07,105.37v-4.64h-1V100h2.84v.72h-1v4.64Z" transform="translate(-0.54 -0.42)"/></g></g></g></svg>